# xmcd
#
# Track frame offsets:
#   150
#   15906
#   28528
#   46620
#   57629
#   70249
#   82218
#   94287
#   108425
#   119485
#
# Disc length: 1763 seconds
#
# Revision: 0
# Processed by: cddbd v1.4PL0 Copyright (c) Steve Scherf et al.
# Submitted via: uFREEDB 1.6.0
#
DISCID=8106e10a
DTITLE=Martin, Dean - Gentle On My Mind
DYEAR=1968
DGENRE=Country
TTITLE0=Not Enough Indians
TTITLE1=That Old Time Feeling
TTITLE2=Honey
TTITLE3=Welcome To My Heart
TTITLE4=By The Time I Get To Phoenix
TTITLE5=Gentle On My Mind
TTITLE6=That's When I See The Blues
TTITLE7=Rainbows Are Back In Style
TTITLE8=Drowning In My Tears
TTITLE9=April Again
EXTD=
EXTT0=
EXTT1=
EXTT2=
EXTT3=
EXTT4=
EXTT5=
EXTT6=
EXTT7=
EXTT8=
EXTT9=
PLAYORDER=
